# File created by Blade
# Date/Time:  Fri Jan 16 19:18:57 2015
# Frame Rate: 120.000 fps
#------------------------------------------------------
:FULLY-SPECIFIED
:DEGREES
312
root 19.895106 35.778786 -22.130101 -167.910652 0.799766 -180.162836
Spine -26.896021 3.899127 -0.098238
Head 21.226364 -2.272015 -14.780724
LeftShoulder -17.773450 -49.245786 43.748643
LeftArm 29.809311 -42.474405 2.257593
LeftForeArm -66.034851 -0.000000 88.918753
LeftHand 1.173068 -0.000000 -11.966225
LeftHandThumb1 -26.253704 0.000000 33.147579
RightShoulder -13.550282 26.507208 -63.889224
RightArm 136.789468 65.079180 93.909325
RightForeArm 47.708678 -0.000000 111.312615
RightHand 12.840085 -0.000000 4.642354
RightHandThumb1 -24.326973 -0.000000 -32.862282
LeftUpLeg -3.031301 9.953464 -1.642975
LeftLeg -7.014920 -0.000000 0.000000
LeftFoot -19.086232 25.374169 -18.223240
LeftToeBase 23.624826 -0.000000 -0.000000
RightUpLeg -4.796399 -4.166488 -0.505092
RightLeg -2.385723 -0.000000 0.000000
RightFoot -21.246412 -25.025169 17.545765
RightToeBase 22.749835 -0.000000 -0.000000
313
root 19.892018 35.777783 -22.133660 -167.912748 0.764697 -180.178778
Spine -26.903887 3.899661 -0.115469
Head 21.270486 -2.289458 -14.881511
LeftShoulder -17.770893 -49.128844 43.580420
LeftArm 29.904976 -42.494732 2.159363
LeftForeArm -66.057549 -0.000000 88.942526
LeftHand 1.198854 -0.000000 -11.943141
LeftHandThumb1 -26.253704 0.000000 33.147579
RightShoulder -13.529090 26.624806 -64.013404
RightArm 136.356610 65.006377 93.487042
RightForeArm 47.669867 -0.000000 111.320305
RightHand 12.804161 -0.000000 4.676117
RightHandThumb1 -24.326973 -0.000000 -32.862282
LeftUpLeg -3.034446 9.951759 -1.655161
LeftLeg -6.998083 -0.000000 0.000000
LeftFoot -19.086390 25.320034 -18.199997
LeftToeBase 23.670836 -0.000000 -0.000000
RightUpLeg -4.784802 -4.169669 -0.521019
RightLeg -2.380039 -0.000000 0.000000
RightFoot -21.280085 -25.074775 17.570114
RightToeBase 22.598656 -0.000000 -0.000000
314
root 19.888254 35.778282 -22.136655 -167.951195 0.727778 -180.198171
Spine -26.873495 3.898136 -0.096630
Head 21.355180 -2.247575 -15.076558
LeftShoulder -17.699688 -48.961482 43.264141
LeftArm 30.004051 -42.573467 2.143849
LeftForeArm -66.102278 -0.000000 88.939347
LeftHand 1.215885 -0.000000 -11.933229
LeftHandThumb1 -26.253704 0.000000 33.147579
RightShoulder -13.384803 26.054782 -63.804781
RightArm 137.503425 64.965566 94.227198
RightForeArm 47.436513 -0.000000 111.183630
RightHand 13.051853 -0.000000 4.640364
RightHandThumb1 -24.326973 -0.000000 -32.862282
LeftUpLeg -2.995166 9.920186 -1.664337
LeftLeg -6.995588 -0.000000 0.000000
LeftFoot -19.065486 25.300082 -18.218586
LeftToeBase 23.617842 -0.000000 -0.000000
RightUpLeg -4.750683 -4.187690 -0.539608
RightLeg -2.354108 -0.000000 0.000000
RightFoot -21.317416 -25.084237 17.579051
RightToeBase 22.723072 -0.000000 -0.000000
315
root 19.884997 35.777341 -22.140416 -167.970765 0.695657 -180.214961
Spine -26.864529 3.911581 -0.106350
Head 21.444912 -2.221819 -15.221843
LeftShoulder -17.684448 -48.828426 43.061042
LeftArm 30.121390 -42.607611 2.042420
LeftForeArm -66.105496 0.000000 88.954006
LeftHand 1.224593 -0.000000 -11.859984
LeftHandThumb1 -26.253704 0.000000 33.147579
RightShoulder -13.393963 26.133126 -63.928662
RightArm 137.020848 64.933594 93.747707
RightForeArm 47.320816 -0.000000 111.197503
RightHand 13.042869 -0.000000 4.690729
RightHandThumb1 -24.326973 -0.000000 -32.862282
LeftUpLeg -2.986025 9.954303 -1.685173
LeftLeg -6.977520 -0.000000 0.000000
LeftFoot -19.062764 25.255691 -18.204420
LeftToeBase 23.647362 -0.000000 -0.000000
RightUpLeg -4.725451 -4.182260 -0.562382
RightLeg -2.346335 -0.000000 0.000000
RightFoot -21.333393 -25.133639 17.484873
RightToeBase 22.904092 -0.000000 -0.000000
316
root 19.880338 35.776879 -22.143919 -167.992356 0.663781 -180.227098
Spine -26.861062 3.924230 -0.091536
Head 21.562329 -2.167937 -15.413361
LeftShoulder -17.663080 -48.725602 42.851440
LeftArm 30.230342 -42.625359 1.935023
LeftForeArm -66.012022 -0.000000 88.976907
LeftHand 1.212530 -0.000000 -11.811378
LeftHandThumb1 -26.253704 0.000000 33.147579
RightShoulder -13.351200 26.179180 -64.015373
RightArm 136.678944 64.904758 93.352058
RightForeArm 47.201659 -0.000000 111.171334
RightHand 13.046743 0.000000 4.767130
RightHandThumb1 -24.326973 -0.000000 -32.862282
LeftUpLeg -2.960169 9.925663 -1.695367
LeftLeg -6.977120 -0.000000 0.000000
LeftFoot -19.069949 25.254769 -18.205035
LeftToeBase 23.451902 -0.000000 -0.000000
RightUpLeg -4.704044 -4.180982 -0.580086
RightLeg -2.326476 -0.000000 0.000000
RightFoot -21.354161 -25.171601 17.477318
RightToeBase 22.881666 -0.000000 -0.000000
317
root 19.876735 35.776245 -22.149806 -168.039595 0.610354 -180.253513
Spine -26.836501 3.915583 -0.100014
Head 21.711132 -2.121401 -15.620127
LeftShoulder -17.665794 -48.666350 42.663078
LeftArm 30.404898 -42.590470 1.784475
LeftForeArm -65.950885 -0.000000 88.971185
LeftHand 1.226160 -0.000000 -11.827241
LeftHandThumb1 -26.253704 0.000000 33.147579
RightShoulder -13.275980 26.084536 -64.024226
RightArm 136.664223 64.852791 93.213028
RightForeArm 47.050450 -0.000000 111.104728
RightHand 13.051930 -0.000000 4.912309
RightHandThumb1 -24.326973 -0.000000 -32.862282
LeftUpLeg -2.919918 9.924641 -1.714026
LeftLeg -6.962397 -0.000000 0.000000
LeftFoot -19.064751 25.198380 -18.222378
LeftToeBase 23.643860 -0.000000 -0.000000
RightUpLeg -4.642928 -4.228655 -0.600727
RightLeg -2.331758 -0.000000 0.000000
RightFoot -21.445368 -25.147301 17.664940
RightToeBase 22.817232 -0.000000 -0.000000
318
root 19.873451 35.775696 -22.153619 -168.058769 0.575259 -180.264781
Spine -26.834046 3.916330 -0.093878
Head 21.813798 -2.104322 -15.822620
LeftShoulder -17.630629 -48.548933 42.476594
LeftArm 30.478513 -42.612800 1.713878
LeftForeArm -65.933877 -0.000000 88.988459
LeftHand 1.282996 -0.000000 -11.802359
LeftHandThumb1 -26.253704 0.000000 33.147579
RightShoulder -13.219346 25.964818 -64.005704
RightArm 136.730439 64.787452 93.136256
RightForeArm 46.958889 0.000000 111.034978
RightHand 12.992316 0.000000 5.036180
RightHandThumb1 -24.326973 -0.000000 -32.862282
LeftUpLeg -2.899957 9.895316 -1.719507
LeftLeg -6.956691 -0.000000 0.000000
LeftFoot -19.059991 25.189408 -18.202626
LeftToeBase 23.654913 -0.000000 -0.000000
RightUpLeg -4.617856 -4.231608 -0.617301
RightLeg -2.312504 -0.000000 0.000000
RightFoot -21.422717 -25.227190 17.482080
RightToeBase 22.896699 -0.000000 -0.000000
319
root 19.870567 35.774515 -22.159276 -168.084410 0.540928 -180.277655
Spine -26.827867 3.916908 -0.094962
Head 21.908447 -2.054226 -15.984788
LeftShoulder -17.595765 -48.488453 42.354367
LeftArm 30.461685 -42.569402 1.700963
LeftForeArm -65.987754 -0.000000 89.039338
LeftHand 1.285054 -0.000000 -11.768977
LeftHandThumb1 -26.253704 0.000000 33.147579
RightShoulder -13.169979 25.944759 -64.048062
RightArm 136.550096 64.771981 92.876663
RightForeArm 46.765521 0.000000 110.958877
RightHand 13.031569 -0.000000 5.228069
RightHandThumb1 -24.326973 -0.000000 -32.862282
LeftUpLeg -2.868540 9.872643 -1.725504
LeftLeg -6.954123 -0.000000 0.000000
LeftFoot -19.054454 25.175466 -18.194430
LeftToeBase 23.637758 -0.000000 -0.000000
RightUpLeg -4.582403 -4.225487 -0.635289
RightLeg -2.300832 -0.000000 0.000000
RightFoot -21.433896 -25.248077 17.477779
RightToeBase 22.835385 -0.000000 -0.000000
320
root 19.868087 35.773536 -22.163947 -168.100578 0.534239 -180.281184
Spine -26.830552 3.946268 -0.096066
Head 22.007619 -1.996860 -16.138031
LeftShoulder -17.595431 -48.435609 42.288417
LeftArm 30.417350 -42.505652 1.670462
LeftForeArm -65.949880 -0.000000 89.107963
LeftHand 1.249729 -0.000000 -11.769987
LeftHandThumb1 -26.253704 0.000000 33.147579
RightShoulder -13.146058 25.968080 -64.103157
RightArm 136.228180 64.748577 92.502465
RightForeArm 46.621903 -0.000000 110.893826
RightHand 13.096759 -0.000000 5.397325
RightHandThumb1 -24.326973 -0.000000 -32.862282
LeftUpLeg -2.842256 9.871703 -1.725001
LeftLeg -6.954773 -0.000000 0.000000
LeftFoot -19.054125 25.149535 -18.180776
LeftToeBase 23.639166 -0.000000 -0.000000
RightUpLeg -4.566495 -4.199650 -0.643251
RightLeg -2.281646 -0.000000 0.000000
RightFoot -21.498822 -25.326213 17.423429
RightToeBase 23.122675 -0.000000 -0.000000
321
root 19.865671 35.773037 -22.170155 -168.127294 0.525945 -180.280874
Spine -26.827641 3.967385 -0.080463
Head 22.150927 -1.909997 -16.369147
LeftShoulder -17.588694 -48.372901 42.230306
LeftArm 30.316186 -42.433032 1.679899
LeftForeArm -65.984614 0.000000 89.200578
LeftHand 1.253448 -0.000000 -11.762949
LeftHandThumb1 -26.253704 0.000000 33.147579
RightShoulder -13.057819 25.857184 -64.075473
RightArm 136.284608 64.735093 92.412733
RightForeArm 46.518386 -0.000000 110.788322
RightHand 13.095737 -0.000000 5.486656
RightHandThumb1 -24.326973 -0.000000 -32.862282
LeftUpLeg -2.805727 9.882074 -1.725351
LeftLeg -6.959945 -0.000000 0.000000
LeftFoot -19.065554 25.148852 -18.182862
LeftToeBase 23.656099 -0.000000 -0.000000
RightUpLeg -4.524109 -4.200482 -0.646433
RightLeg -2.291786 -0.000000 0.000000
RightFoot -21.492914 -25.304474 17.504097
RightToeBase 22.869591 -0.000000 -0.000000
322
root 19.863237 35.772645 -22.175948 -168.150587 0.532951 -180.282045
Spine -26.818802 4.012840 -0.090194
Head 22.224960 -1.838235 -16.470395
LeftShoulder -17.560281 -48.267580 42.172984
LeftArm 30.196678 -42.415506 1.707896
LeftForeArm -66.008828 -0.000000 89.299983
LeftHand 1.306298 -0.000000 -11.665430
LeftHandThumb1 -26.253704 0.000000 33.147579
RightShoulder -12.993434 25.798945 -64.066701
RightArm 136.238392 64.739365 92.244708
RightForeArm 46.440637 -0.000000 110.668771
RightHand 13.155837 -0.000000 5.615568
RightHandThumb1 -24.326973 -0.000000 -32.862282
LeftUpLeg -2.764721 9.856661 -1.720059
LeftLeg -6.966459 -0.000000 0.000000
LeftFoot -19.064895 25.156803 -18.189058
LeftToeBase 23.594968 -0.000000 -0.000000
RightUpLeg -4.494737 -4.192497 -0.655684
RightLeg -2.288485 -0.000000 0.000000
RightFoot -21.483202 -25.299823 17.491746
RightToeBase 22.877522 -0.000000 -0.000000
323
root 19.861477 35.771925 -22.182675 -168.189774 0.555395 -180.284398
Spine -26.791310 4.068596 -0.102051
Head 22.302969 -1.754485 -16.602475
LeftShoulder -17.521725 -48.197342 42.124258
LeftArm 30.039167 -42.379652 1.770753
LeftForeArm -66.001680 -0.000000 89.395061
LeftHand 1.333611 0.000000 -11.620929
LeftHandThumb1 -26.253704 0.000000 33.147579
RightShoulder -12.925035 25.699204 -64.033501
RightArm 136.337425 64.694600 92.221422
RightForeArm 46.366454 0.000000 110.573660
RightHand 13.091250 -0.000000 5.781233
RightHandThumb1 -24.326973 -0.000000 -32.862282
LeftUpLeg -2.704583 9.845928 -1.717465
LeftLeg -6.978718 -0.000000 0.000000
LeftFoot -19.091809 25.185134 -18.212601
LeftToeBase 23.648982 -0.000000 -0.000000
RightUpLeg -4.437777 -4.155663 -0.668376
RightLeg -2.313418 -0.000000 0.000000
RightFoot -21.537554 -25.303362 17.590392
RightToeBase 22.912341 -0.000000 -0.000000
